<?xml version="1.0" encoding="utf-8"?>
<!-- Generator: Adobe Illustrator 25.2.1, SVG Export Plug-In . SVG Version: 6.00 Build 0)  -->
<svg version="1.1" id="Layer_1" xmlns="http://www.w3.org/2000/svg" xmlns:xlink="http://www.w3.org/1999/xlink" x="0px" y="0px"
	 viewBox="0 0 1114 1080" style="enable-background:new 0 0 1114 1080;" xml:space="preserve">
<style type="text/css">
	.st0{fill:#FFFFFF;stroke:#000000;stroke-width:9;stroke-miterlimit:10;}
	.st1{fill:#231F20;}
	.st2{fill:#FFFFFF;stroke:#231F20;stroke-width:9;stroke-miterlimit:10;}
	.st3{fill:#FFFFFF;}
</style>
<rect x="297.94" y="341.49" width="513.49" height="485.33"/>
<g>
	<circle class="st0" cx="304.45" cy="484.16" r="238.8"/>
	<circle class="st0" cx="556.94" cy="307.09" r="238.8"/>
	<circle class="st0" cx="810.73" cy="482.52" r="238.8"/>
	<circle class="st0" cx="397" cy="769.79" r="238.8"/>
	<circle class="st0" cx="719.63" cy="766.85" r="238.8"/>
</g>
<g>
	<circle cx="557.79" cy="308.91" r="192.72"/>
	<g>
		<circle cx="309.11" cy="483.71" r="192.72"/>
		<circle cx="806.42" cy="483.71" r="192.72"/>
	</g>
	<g>
		<circle cx="397" cy="766.85" r="192.72"/>
		<circle cx="717.72" cy="766.85" r="192.72"/>
	</g>
</g>
<rect x="317" y="351.19" class="st1" width="483.08" height="467.35"/>
<path class="st2" d="M320.15,250.4"/>
<polygon class="st3" points="320.15,250.4 330.39,251.1 323.03,291.49 314.03,291.05 313.77,278.7 318,251.45 "/>
<path d="M772.88,241.32"/>
<polygon class="st3" points="781.63,240.93 784.13,250.28 764.41,253.78 754.31,255.51 744.39,258.1 743.7,257.94 743.05,255.62 
	742.51,253.78 741.57,250.73 741.11,249.27 745.84,246.64 752.3,244.66 763.23,241.38 777.5,239.93 781,240.41 "/>
<g>
	<circle cx="557.82" cy="308.66" r="192.72"/>
	<g>
		<circle cx="309.14" cy="483.46" r="192.72"/>
		<circle cx="806.45" cy="483.46" r="192.72"/>
	</g>
	<g>
		<circle cx="397.02" cy="766.6" r="192.72"/>
		<circle cx="717.75" cy="766.6" r="192.72"/>
	</g>
</g>
<polygon class="st3" points="944.72,674.69 936.07,680.04 929.63,668.62 924.15,659.46 919.94,648.36 917.07,642.23 917.34,641.33 
	924.61,635.94 929.25,638.49 940.64,649.24 942.97,663.7 945.27,669.99 "/>
<polygon class="st3" points="171.74,677.36 180.79,683.39 187.13,674.25 190.89,665.33 193.21,659.42 194.07,658.02 201.17,644.02 
	200.06,642.63 192.75,637.34 187.67,639.19 183.42,646.47 181.93,650.75 179.31,657.18 177.62,659.81 173.93,665.24 172.23,672.03 
	"/>
<polygon class="st3" points="553.1,944.4 563.1,935.62 561.67,933.18 531.9,905.28 530.71,905.63 524.05,911.76 524.07,912.31 
	545.68,941.85 "/>
<g>
	<rect x="825.27" y="915.22" transform="matrix(0.9944 0.1054 -0.1054 0.9944 101.8089 -85.8339)" width="75.39" height="10.13"/>
	<rect x="791.18" y="942.62" transform="matrix(0.1054 -0.9944 0.9944 0.1054 -202.4752 1670.2915)" width="71.86" height="10.13"/>
</g>
<g>
	<rect x="263.7" y="950.18" transform="matrix(0.1005 0.9949 -0.9949 0.1005 1219.9246 561.1175)" width="71.86" height="10.13"/>
	<rect x="219.76" y="922.95" transform="matrix(0.9949 -0.1005 0.1005 0.9949 -91.9613 30.9025)" width="81.85" height="10.13"/>
</g>
<g>
	<rect x="62.44" y="447.91" transform="matrix(-0.9103 0.414 -0.414 -0.9103 375.4157 824.5953)" width="71.86" height="10.13"/>
	<rect x="70.76" y="402.28" transform="matrix(0.414 0.9103 -0.9103 0.414 436.2586 137.0645)" width="81.85" height="10.13"/>
</g>
<g>
	<rect x="981.75" y="448.29" transform="matrix(0.9103 0.414 -0.414 0.9103 278.9566 -380.6082)" width="71.86" height="10.13"/>
	<rect x="963.44" y="402.66" transform="matrix(-0.414 0.9103 -0.9103 -0.414 1791.2843 -337.7617)" width="81.85" height="10.13"/>
</g>
<polygon class="st3" points="94.07,380.86 90.33,372.65 88.46,368.55 82.42,378.73 69.16,397.11 58.22,435.7 57.69,464.53 
	60.76,464.1 61.35,464.15 63.56,463.23 72.06,459.37 84.9,432.09 94.71,386.6 "/>
<polygon class="st3" points="1020.9,383.61 1025.92,372.57 1027.85,368.01 1036.58,378.68 1045.31,398.19 1065.36,462 
	1054.15,464.26 1052.48,463.61 1043.13,459.36 1021.93,397.76 "/>
<polyline class="st3" points="887.53,927.98 899.92,929.29 909.15,930.14 898.34,948.46 840.67,983.82 827.66,985.54 "/>
<polygon class="st3" points="830.49,963.84 828.83,979.54 828.36,983.95 828.13,985.76 848.75,970.38 861.15,955.47 859.85,951.59 
	841.31,955.94 "/>
<path class="st3" d="M297.19,981.52c0,0,0.52,5.16,0.56,5.53s0.45,4.45,0.45,4.45l0.19,1.81l-28.27-7.6l5.08-18.82l0.06-0.23
	L297.19,981.52z"/>
<polygon class="st3" points="246.63,940.4 224.27,957.64 270.13,985.72 279.34,967.34 275.25,956.46 "/>
<path class="st3" d="M236.3,935.57l-13.24,1.34l-2.59,0.26l-2.78,0.8v7.28c0,0,5.04,7.73,5.23,7.76c0.19,0.03,21.1,1.56,21.1,1.56
	l3.72-12.31l-1.7-3.53L236.3,935.57z"/>
<g>
	<rect x="542.7" y="94.45" transform="matrix(0.7066 -0.7076 0.7076 0.7066 100.0534 440.3358)" width="76.63" height="10.13"/>
	<rect x="495.43" y="94.46" transform="matrix(0.7076 0.7066 -0.7066 0.7076 226.382 -348.0513)" width="76.67" height="10.13"/>
</g>
<polygon class="st3" points="517.82,76.45 511.86,70.5 510.21,68.85 509.11,67.75 516.23,64.68 538.24,61.71 554.14,61.39 
	599.23,62.91 588.02,78.64 538.87,79.07 "/>
<polygon class="st3" points="596.46,76.87 602.35,70.98 604.5,68.83 605.9,67.45 594.53,64.43 587.55,74.97 592.7,77.21 "/>
<rect x="318" y="357" width="478" height="478"/>
<rect x="713.55" y="368.01" class="st3" width="69.84" height="204.79"/>
<rect x="713.55" y="598" class="st3" width="69.84" height="204.6"/>
<g>
	<rect x="526.87" y="368.01" class="st3" width="69.84" height="204.79"/>
	<rect x="619.21" y="368.01" class="st3" width="69.84" height="204.79"/>
	<rect x="596.72" y="444.75" class="st3" width="23.5" height="51.41"/>
</g>
<g>
	<rect x="331.13" y="444.75" class="st3" width="169.87" height="51.41"/>
	<rect x="331.13" y="368.12" class="st3" width="169.87" height="59.6"/>
	<rect x="331.13" y="513.09" class="st3" width="169.87" height="59.6"/>
	<rect x="331.13" y="427.72" class="st3" width="84.93" height="17.03"/>
	<rect x="424.91" y="496.16" class="st3" width="76.1" height="16.92"/>
</g>
<g>
	<rect x="331.13" y="674.66" class="st3" width="169.87" height="51.41"/>
	<rect x="331.13" y="598.02" class="st3" width="169.87" height="59.6"/>
	<rect x="331.13" y="742.99" class="st3" width="169.87" height="59.6"/>
	<rect x="331.13" y="657.63" class="st3" width="84.93" height="17.03"/>
	<rect x="424.91" y="726.07" class="st3" width="76.1" height="16.92"/>
</g>
<g>
	<rect x="526.87" y="598" class="st3" width="69.84" height="204.4"/>
	<g>
		<rect x="526.87" y="674.71" class="st3" width="162.11" height="51.41"/>
		<rect x="526.87" y="598.07" class="st3" width="162.11" height="59.6"/>
		<rect x="526.87" y="743.04" class="st3" width="162.11" height="59.6"/>
	</g>
</g>
</svg>
