<svg version="1.1" xmlns="http://www.w3.org/2000/svg" style="display: block;" viewBox="0 0 2048 2048" width="512" height="512" preserveAspectRatio="none">
<path transform="translate(0,0)" fill="rgb(0,0,0)" d="M 1177.02 438.01 C 1233.86 437.218 1266.95 448.942 1313.42 484.709 C 1332.84 498.921 1346.59 518.473 1363.43 535.04 C 1505 674.315 1562.01 864.43 1582.81 1057.93 C 1510.17 1054.74 1438.3 1053.21 1366.48 1067.49 C 1356.47 1069.48 1340.97 1072.27 1332.38 1076.93 C 1332.02 1061.18 1328.04 1032.93 1326.07 1016.2 C 1316.97 939.174 1302.97 863.349 1279.06 789.44 C 1271.49 770.831 1268.21 758.438 1257.27 741.513 C 1260.36 792.336 1255.97 847.319 1257.7 898.518 C 1258.48 921.397 1258.31 948.465 1257.07 971.276 C 1170.36 985.51 1071.89 999.722 983.92 994.551 C 954.347 992.69 924.833 989.996 895.412 986.472 C 880.806 984.637 850.872 979.494 837.462 979.464 L 835.88 979.472 C 844.065 967.322 857.782 951.454 867.311 939.734 C 883.02 920.334 898.504 900.753 913.761 880.996 C 963.876 815.667 1010.53 747.753 1053.52 677.535 C 1084.71 626.551 1113.45 574.112 1139.64 520.394 C 1147.78 503.299 1155.56 486.035 1162.97 468.612 C 1166.14 461.272 1172.93 443.962 1177.02 438.01 z"/>
<path transform="translate(0,0)" fill="rgb(0,0,0)" d="M 848.402 438.3 C 853.506 438.062 861.772 437.301 866.568 438.438 C 869.626 439.163 870.88 441.28 871.882 444.027 C 875.578 454.161 878.773 465.286 881.978 475.582 C 887.868 494.47 894.126 513.241 900.751 531.883 C 923.56 594.869 945.588 645.309 973.83 705.348 C 970.757 712.559 951.946 739.474 946.546 747.436 C 898.205 818.405 845.898 886.59 789.876 951.666 C 790.899 932.406 789.967 909.189 790.142 889.531 C 790.578 840.493 789.299 790.869 790.575 741.876 C 760.072 782.828 727.761 949.683 723.663 1001.49 C 720.502 1026.15 717.77 1050.85 715.468 1075.61 C 637.571 1054.72 560.423 1053.46 480.326 1057.17 C 475.988 1057.37 470.691 1057.88 466.524 1056.98 C 466.283 1056.18 465.821 1054.83 465.89 1054.08 C 485.565 840.15 565.132 617.755 742.577 484.787 C 778.554 457.828 803.333 444.788 848.402 438.3 z"/>
<path transform="translate(0,0)" fill="rgb(0,0,0)" d="M 747.716 1303.06 C 780.861 1306.68 816.12 1311.87 849.212 1316.69 C 840.867 1343.96 834.852 1386.06 829.492 1414.7 C 846.722 1417.33 863.884 1419.34 881.299 1422.1 C 882.284 1404.15 895.413 1341.46 900.968 1323.91 L 973.776 1333.52 C 986.529 1335.3 1003.8 1337.31 1016.05 1340.12 C 1014.19 1350.45 1013.59 1376.84 1012.99 1388.75 L 1008.17 1481 L 989.618 1835.25 C 987.572 1858.15 986.83 1887.63 985.391 1911.24 C 978.419 1908.62 972.45 1907.01 965.222 1905.25 C 881.505 1884.86 794.74 1877.95 708.792 1875.81 C 699.459 1875.58 688.949 1875.09 679.761 1876.05 L 729.805 1447.82 L 741.259 1349.68 C 742.248 1341.19 745.384 1309.19 747.716 1303.06 z"/>
<path transform="translate(0,0)" fill="rgb(0,0,0)" d="M 1283.37 1305.39 C 1285.85 1304.85 1286.4 1305.04 1288.98 1305.2 C 1292 1308.48 1302.48 1408.16 1303.9 1420.21 L 1331.46 1655 L 1348.02 1796.18 C 1350.92 1820.97 1355.3 1850.87 1356.83 1875.23 C 1282.18 1876.29 1211.36 1880.35 1137.55 1892.34 C 1107.22 1897.27 1082.69 1903.79 1053.5 1909.44 C 1049.42 1904.8 1048.36 1853.27 1047.93 1843.75 C 1043.2 1725.79 1034.42 1607.36 1029.34 1489.34 C 1027.22 1440.16 1024.97 1389.81 1021.58 1340.77 C 1061.56 1336.92 1106.82 1329.19 1147.6 1324.25 C 1149.29 1334.77 1153.53 1349.9 1155.91 1360.93 C 1160.2 1380.95 1163.82 1401.11 1166.76 1421.37 C 1183.82 1419.74 1200.92 1417.22 1218.05 1415.44 C 1212.24 1380.35 1207.66 1351.76 1198.85 1316.57 C 1226.82 1313.55 1255.25 1308.47 1283.37 1305.39 z"/>
<path transform="translate(0,0)" fill="rgb(0,0,0)" d="M 1022.87 1050.27 C 1028.22 1052.07 1038.06 1070.01 1041.42 1075.46 C 1084.52 1146.21 1118 1222.39 1140.97 1301.98 C 1102.92 1307.12 1063.86 1313.33 1025.76 1317.24 C 999.469 1315.66 968.546 1309.27 941.926 1306.43 C 930.261 1305.18 918.773 1302.53 906.897 1302.63 C 911.464 1284.22 920.805 1257.34 927.353 1239.62 C 951.561 1172.94 983.626 1109.37 1022.87 1050.27 z"/>
<path transform="translate(0,0)" fill="rgb(0,0,0)" d="M 1252.55 1024.32 C 1256.65 1023.98 1256.4 1023.38 1259.62 1024.86 C 1263.97 1035.94 1268.33 1050.88 1272.06 1062.55 L 1292.67 1127.54 C 1279.56 1163.78 1255.2 1188.48 1265.46 1230.58 C 1270.12 1249.73 1281.02 1268.89 1298.08 1279.45 C 1276.07 1283.81 1252.94 1286.57 1230.72 1289.78 C 1218.64 1291.52 1204.77 1292.39 1193.09 1295.05 C 1190.02 1286.84 1187.25 1276.77 1184.68 1268.26 C 1163.81 1196.89 1122.61 1107.67 1083.46 1044.79 C 1143.15 1040.25 1193.64 1033.13 1252.55 1024.32 z"/>
<path transform="translate(0,0)" fill="rgb(0,0,0)" d="M 795.581 1025.05 C 801.882 1024.58 855.514 1033.35 865.098 1034.64 C 898.045 1038.96 931.104 1042.37 964.239 1044.86 C 931.553 1093.49 879.108 1208.74 864.188 1265.22 C 861.048 1274.96 857.984 1284.72 854.995 1294.51 C 843.863 1293.69 825.444 1290.53 813.894 1288.95 C 793.135 1286.1 770.471 1283.28 750.013 1279.46 C 762.215 1272.01 772.163 1258.6 777.498 1245.51 C 797.662 1196.02 771.91 1170.4 755.469 1128.84 C 759.329 1108.55 776.765 1059.83 784.452 1038.95 C 786.276 1034 791.627 1028.69 795.581 1025.05 z"/>
<path transform="translate(0,0)" fill="rgb(0,0,0)" d="M 572.975 1081.6 C 613.156 1083.25 692.236 1089.02 727.248 1108.35 C 733.067 1119.01 738.144 1132.78 743.322 1144.24 C 749.468 1157.84 758.23 1173.21 763.099 1186.87 C 765.425 1193.34 766.841 1200.11 767.308 1206.97 C 768.669 1228.25 761.496 1243.79 747.836 1259.4 C 726.849 1280.25 696.694 1286.16 669.611 1273.89 C 644.548 1262.54 635.651 1240.71 624.669 1217.47 C 610.235 1187.3 597.502 1156.34 586.529 1124.75 C 581.732 1110.92 578.282 1096.05 573.413 1082.77 L 572.975 1081.6 z"/>
<path transform="translate(0,0)" fill="rgb(0,0,0)" d="M 1457.36 1082.42 L 1474.78 1081.67 C 1470.49 1093.28 1467.03 1107.91 1462.89 1120.2 C 1451.58 1153.16 1438.37 1185.43 1423.32 1216.85 C 1418.1 1227.84 1413.16 1238.9 1406.58 1249.17 C 1386.4 1280.62 1342.57 1290.12 1311.52 1268.66 C 1297 1259.14 1286.62 1245.31 1282.44 1228.4 C 1274.5 1196.35 1291.65 1172.84 1304.33 1144.96 C 1309.49 1133.6 1315.32 1117.22 1321.51 1106.9 C 1358.47 1090.68 1417.56 1084.94 1457.36 1082.42 z"/>
<path transform="translate(0,0)" fill="rgb(0,0,0)" d="M 924.964 437.695 C 940.441 439.026 974.196 437.968 990.758 437.953 L 1119.73 438.048 C 1098.76 487.444 1075.1 535.659 1048.88 582.479 C 1037.56 603.023 1019.29 635.891 1006.11 654.515 C 1001.06 639.789 991.141 619.703 984.765 604.616 C 967.38 563.806 951.68 522.298 937.706 480.198 C 934.058 469.067 927.177 448.858 924.964 437.695 z"/>
<path transform="translate(0,0)" fill="rgb(0,0,0)" d="M 999.336 0 L 1047.57 0 C 1054.71 3.26866 1064.28 3.64767 1071.9 5.75083 C 1079.81 7.93142 1088.74 11.079 1096.31 14.1201 C 1144.55 33.4542 1183.04 71.3101 1203.16 119.227 C 1222.93 166.659 1223.19 219.974 1203.89 267.597 C 1183.98 316.146 1145.46 354.701 1096.92 374.649 C 1049.77 393.79 996.973 393.612 949.946 374.155 C 901.716 354.254 863.47 315.86 843.756 267.553 C 824.425 219.42 824.987 165.582 845.32 117.864 C 866.101 69.6416 903.809 32.8251 952.613 13.2694 C 967.457 7.32155 986.045 5.72451 999.336 0 z"/>
<path transform="translate(0,0)" fill="rgb(0,0,0)" d="M 725.526 1901.4 C 797.262 1905.49 867.184 1909.52 937.818 1925.35 C 936.394 1941.84 935.982 1957.56 931.013 1973.53 C 921.666 2003.56 898.896 2027.46 870.278 2040.03 C 864.404 2042.61 851.699 2044.83 846.956 2048 L 812.277 2048 L 811.205 2047.55 C 803.041 2044.23 791.694 2041.46 784.57 2038.22 C 760.981 2027.49 741.207 2006.97 731.101 1983.25 C 719.706 1956.5 722.772 1929.4 725.526 1901.4 z"/>
<path transform="translate(0,0)" fill="rgb(0,0,0)" d="M 1099.75 1924.88 C 1170.75 1912.58 1239.2 1902.74 1311.67 1901.77 C 1314 1929.43 1317.47 1954.62 1306.4 1981.37 C 1295.06 2008.76 1272.94 2030.92 1244.89 2041.14 C 1239.97 2042.94 1228.93 2045.67 1224.93 2048 L 1190.21 2048 L 1188.64 2047.28 C 1180.33 2043.5 1170 2041.79 1161.75 2037.76 C 1113.79 2014.32 1100.58 1974.53 1099.75 1924.88 z"/>
</svg>