<svg version="1.1" xmlns="http://www.w3.org/2000/svg" fill="currentColor" style="display: block;" viewBox="0 0 2048 2048" width="512" height="512" preserveAspectRatio="none">
<path transform="translate(0,0)" d="M 1337.07 734.361 C 1339.91 735.565 1370.7 778.162 1375.21 784.246 L 1446.79 881.02 L 1660.12 1169.71 L 1810.76 1373.55 L 1859.8 1439.9 C 1872.84 1457.54 1903.59 1488.11 1881.15 1510.54 C 1870.16 1521.52 1853.34 1532.31 1840.39 1541.7 L 1763.47 1597.45 C 1728.39 1622.56 1715.26 1595.02 1696.04 1568.86 L 1663.16 1524.33 L 1556.67 1380.23 L 1218.26 922.294 C 1224.68 913.85 1239.01 900.234 1246.98 892.293 L 1296.51 842.946 C 1311.82 827.695 1327.48 814.472 1333.56 792.689 C 1338.93 773.458 1334.05 752.953 1337.07 734.361 z"/>
<path transform="translate(0,0)" d="M 837.57 586.574 C 846.214 588.151 888.756 608.89 899.833 614.061 C 943.338 634.21 986.739 654.586 1030.03 675.187 C 1023.98 686.146 994.904 723.142 985.518 735.612 L 891.174 861.275 L 560.858 1301.3 C 542.81 1322.52 528.013 1318.61 507.733 1304.07 L 435.179 1251.37 C 420.547 1240.74 403.627 1229.67 390.996 1217.02 C 382.451 1208.46 384.502 1190.73 390.948 1181.49 C 406.769 1158.82 423.978 1136.79 440.6 1114.72 L 536.039 987.638 L 837.57 586.574 z"/>
<path transform="translate(0,0)" d="M 295.763 565.638 L 629.572 565.693 L 730.692 565.69 C 742.039 565.693 787.292 564.446 794.959 567.892 C 795.672 575.973 768.162 609.752 761.978 617.964 L 709.002 688.28 C 693.754 709.709 676.793 730.481 661.407 751.86 C 656.053 759.299 650.03 767.48 643.898 774.182 C 635.175 775.594 621.139 775.194 612.023 775.171 L 563.34 775.045 L 379.957 775.1 L 327.781 775.202 C 317.837 775.163 305.242 774.537 295.614 775.54 L 295.763 565.638 z"/>
<path transform="translate(0,0)" d="M 1337.31 565.213 C 1345.75 566.302 1369.72 565.736 1379.41 565.728 L 1461.71 565.682 L 1752.28 565.77 C 1753.04 631.909 1753.87 708.727 1752 774.623 C 1726.38 775.621 1698.36 775.112 1672.55 775.106 L 1539.97 775.066 L 1469.61 775.194 C 1454.57 775.304 1433.88 776.165 1419.56 774.348 C 1402.91 753.391 1386.81 729.251 1370.24 707.727 C 1359.95 694.352 1347.52 677.856 1338.54 663.624 C 1337.12 661.377 1335.96 655.011 1336.09 652.799 C 1336.91 639.48 1334.77 572.868 1337.31 565.213 z"/>
<path transform="translate(0,0)" d="M 1110.76 441.385 C 1122.46 440.634 1177.2 439.157 1183.87 444.936 C 1219.2 475.763 1251.34 510.96 1284.73 544.025 C 1297.85 557.014 1294.24 574.735 1294.68 591.81 C 1295.04 605.622 1294.63 619.729 1294.6 633.547 L 1294.77 761.114 C 1294.76 767.279 1294.15 782.938 1290.97 787.118 C 1275.08 808.036 1244.81 836.029 1226.34 854.388 C 1217.39 863.428 1187.62 896.297 1177.07 897.702 C 1160.81 899.866 1093.65 905.879 1089.22 883.664 C 1084.51 859.986 1086.18 825.455 1086.18 800.521 L 1086.2 672.98 L 1086.18 538.37 C 1086.18 515.812 1085.8 493.062 1086.47 470.542 C 1086.96 454.51 1095.53 444.711 1110.76 441.385 z"/>
<path transform="translate(0,0)" d="M 29.9797 566.276 C 40.8951 565.155 57.0479 565.583 68.3579 565.617 L 128.456 565.854 C 128.898 603.723 129.009 641.595 128.79 679.466 C 128.777 710.714 129.372 743.727 128.172 774.774 L 106.25 775.106 C 85.371 774.816 7.89143 783.862 5.69853 752.777 C 2.12047 702.058 4.60677 648.552 4.38233 597.472 C 4.30429 579.713 13.8277 570.694 29.9797 566.276 z"/>
<path transform="translate(0,0)" d="M 1919.49 565.677 L 1980.61 565.553 C 2034.33 565.453 2046.03 566.28 2044.09 625.18 C 2042.77 665.437 2045.94 708.292 2042.91 748.693 C 2042.46 754.676 2038.18 760.694 2034.46 764.998 C 2020.64 777.717 2002.3 774.761 1985.14 775.292 C 1963.31 775.968 1940.91 774.298 1919.17 775.134 C 1919.93 754.747 1919.27 729.922 1919.26 709.126 L 1919.49 565.677 z"/>
<path transform="translate(0,0)" d="M 956.77 441.415 C 959.548 441.201 962.333 441.083 965.119 441.061 C 985.167 440.807 1043.3 433.891 1043.88 464.038 C 1044.99 520.945 1045.84 579.487 1044.17 636.386 C 1037.6 631.74 1023.56 625.904 1015.78 622.298 L 969.352 600.742 C 928.296 581.867 887.399 562.65 846.664 543.093 C 852.383 538.716 865.344 524.691 871.185 518.799 L 921.639 468.081 C 931.524 458.17 942.793 444.276 956.77 441.415 z"/>
<path transform="translate(0,0)" d="M 1794.31 565.8 C 1821.91 565.625 1849.52 565.636 1877.12 565.834 L 1877.33 705.533 C 1877.33 719.599 1878.12 763.519 1876.22 774.744 C 1848.85 775.196 1820.64 774.236 1793.87 774.739 C 1794.29 705.793 1792.73 634.419 1794.31 565.8 z"/>
<path transform="translate(0,0)" d="M 170.538 565.917 C 195.099 564.721 228.391 565.725 253.608 565.838 L 253.861 705.351 C 253.861 719.553 254.644 763.592 252.74 774.892 C 227.265 774.584 195.649 774.312 170.257 774.726 L 170.538 565.917 z"/>
<path transform="translate(0,0)" d="M 1042.87 728.617 C 1045.73 730.761 1044.75 772.912 1044.76 780.241 L 1044.79 836.289 C 1044.78 899.853 1041.44 900.61 977.532 899.367 C 962.676 899.078 958.114 901.451 944.069 893.305 C 938.99 888.683 934.707 884.443 929.896 879.534 C 937.273 867.503 953.017 848.618 961.596 836.629 C 987.391 800.583 1017.3 764.644 1042.87 728.617 z"/>
</svg>