<svg xmlns="http://www.w3.org/2000/svg" width="365" height="259" viewBox="0 0 365 259" version="1.1"><path d="M 151.437 38.800 C 144.753 45.352, 143.976 45.796, 130.165 50.965 C 120.373 54.629, 115.371 57.031, 114.380 58.543 C 112.721 61.075, 110.777 65.776, 88.928 120.100 C 80.167 141.881, 73 160.175, 73 160.754 C 73 161.660, 104.471 179.724, 109.176 181.518 C 111.427 182.377, 112.434 180.653, 121.168 161 L 128.500 144.500 128.778 157.627 C 129.051 170.494, 128.936 171.295, 122.988 198.052 C 119.651 213.066, 117.149 225.946, 117.429 226.675 C 118.156 228.571, 255.234 228.645, 256.764 226.750 C 257.467 225.880, 256.101 218.199, 252.276 201.500 C 247.243 179.529, 246.724 176.126, 246.139 161.248 C 245.788 152.310, 245.725 145.007, 246 145.021 C 246.275 145.034, 250.100 153.189, 254.500 163.144 C 258.900 173.099, 263.044 181.455, 263.708 181.713 C 264.980 182.206, 299.140 163.741, 300.917 161.600 C 302.202 160.052, 262.514 60.924, 259.299 57.651 C 258.137 56.468, 250.732 53.121, 242.843 50.214 L 228.500 44.928 223.241 38.464 L 217.983 32 188.178 32 L 158.373 32 151.437 38.800 M 164 38.413 C 164 39.433, 187.267 78.996, 187.848 78.965 C 188.407 78.935, 195.819 66.493, 208.808 43.784 L 212.116 38 188.058 38 C 174.826 38, 164 38.186, 164 38.413 M 154.039 43.951 L 150.910 47.901 164.600 70.951 C 172.129 83.628, 178.562 93.997, 178.895 93.992 C 179.675 93.982, 184 86.428, 184 85.076 C 184 83.584, 158.759 40, 157.895 40 C 157.495 40, 155.760 41.778, 154.039 43.951 M 184.689 95.414 C 166.710 126.052, 152 151.318, 152 151.560 C 152 151.802, 154.363 152, 157.250 152 L 162.500 152 187.500 109.292 C 201.250 85.803, 215.029 62.243, 218.120 56.936 L 223.740 47.287 220.559 43.498 L 217.378 39.709 184.689 95.414 M 198.792 100.333 C 182.681 127.859, 169.350 150.745, 169.167 151.190 C 168.681 152.369, 175.767 152.185, 176.500 151 C 176.848 150.437, 181.657 150, 187.500 150 C 193.343 150, 198.152 150.437, 198.500 151 C 198.879 151.614, 207.010 152, 219.559 152 L 240 152 240 124.122 C 240 99.729, 240.201 96.078, 241.608 94.910 C 242.975 93.776, 243.426 93.862, 244.608 95.479 C 245.668 96.928, 246 101.431, 246 114.339 L 246 131.297 255.621 152.898 C 260.912 164.779, 265.449 174.724, 265.701 174.997 C 266.158 175.491, 267.686 174.698, 286.107 164.412 L 295.714 159.048 276.292 110.774 C 265.610 84.223, 256.337 61.999, 255.685 61.386 C 255.033 60.773, 248.556 58.025, 241.292 55.278 L 228.084 50.285 198.792 100.333 M 131.768 55.842 C 125.316 58.404, 119.498 61.053, 118.839 61.729 C 118.181 62.405, 108.968 84.455, 98.366 110.729 C 80.693 154.528, 79.232 158.609, 80.795 159.810 C 85.267 163.246, 108.274 175.120, 108.991 174.361 C 109.438 173.888, 114.124 163.858, 119.402 152.073 L 129 130.646 129 113.446 C 129 99.606, 129.285 96.009, 130.456 95.036 C 133.684 92.358, 134 94.905, 134 123.559 L 134 152 139.750 151.982 L 145.500 151.965 160.648 126.051 L 175.795 100.136 161.402 75.818 C 151.863 59.700, 146.417 51.447, 145.255 51.342 C 144.290 51.255, 138.221 53.280, 131.768 55.842 M 180 162.500 L 180 170 186.893 170 C 194.867 170, 195 169.851, 195 160.918 L 195 155 187.500 155 L 180 155 180 162.500 M 134.406 158.386 C 134.113 159.148, 134.015 161.735, 134.187 164.136 L 134.500 168.500 150.435 168.776 L 166.371 169.053 170.685 164.818 C 178.432 157.215, 178 157, 154.969 157 C 138.821 157, 134.834 157.269, 134.406 158.386 M 200 158.792 C 200 159.777, 201.930 162.477, 204.288 164.792 L 208.576 169 224.288 169 L 240 169 240 163 L 240 157 220 157 C 201.441 157, 200 157.129, 200 158.792 M 163.636 179.553 L 153.771 189.832 157.053 193.916 C 158.858 196.162, 160.671 198, 161.081 198 C 161.916 198, 181 176.537, 181 175.598 C 181 175.269, 180.190 175, 179.200 175 C 178.210 175, 176.860 174.460, 176.200 173.800 C 175.540 173.140, 175 171.790, 175 170.800 C 175 169.810, 174.662 169.061, 174.250 169.136 C 173.838 169.211, 169.061 173.899, 163.636 179.553 M 199.313 171.982 C 198.547 174.011, 197.490 175, 196.087 175 C 194.939 175, 194.008 175.338, 194.018 175.750 C 194.038 176.584, 211.855 197.348, 212.906 197.762 C 213.272 197.906, 215.343 196.209, 217.509 193.991 L 221.447 189.958 210.949 179.461 L 200.452 168.964 199.313 171.982 M 133.487 175.250 C 133.059 176.435, 123 221.901, 123 222.647 C 123 223.186, 250.599 223.068, 251.138 222.529 C 251.397 222.269, 249.225 211.357, 246.310 198.279 C 243.396 185.200, 241.009 174.387, 241.006 174.250 C 241.002 174.113, 234.598 174, 226.773 174 L 212.547 174 220.428 181.928 L 228.309 189.855 221.489 197.476 C 217.297 202.159, 214.031 204.981, 213.012 204.798 C 212.101 204.634, 206.713 199.100, 201.038 192.500 C 195.363 185.900, 189.945 179.674, 188.997 178.665 C 187.345 176.905, 186.777 177.403, 175.039 190.915 C 168.309 198.662, 162.246 205, 161.565 205 C 160.119 205, 147 191.668, 147 190.199 C 147 189.651, 150.194 185.782, 154.099 181.601 L 161.198 174 147.567 174 C 137.570 174, 133.817 174.333, 133.487 175.250" stroke="none" fill="#202020" fill-rule="evenodd"/><path d="M 219.500 34 C 220.495 35.100, 221.535 36, 221.810 36 C 222.085 36, 221.495 35.100, 220.500 34 C 219.505 32.900, 218.465 32, 218.190 32 C 217.915 32, 218.505 32.900, 219.500 34 M 151.946 37.750 L 148.500 41.500 152.250 38.054 C 155.740 34.846, 156.460 34, 155.696 34 C 155.529 34, 153.842 35.688, 151.946 37.750 M 164 38.413 C 164 39.433, 187.267 78.996, 187.848 78.965 C 188.407 78.935, 195.819 66.493, 208.808 43.784 L 212.116 38 188.058 38 C 174.826 38, 164 38.186, 164 38.413 M 154.039 43.951 L 150.910 47.901 164.600 70.951 C 172.129 83.628, 178.562 93.997, 178.895 93.992 C 179.675 93.982, 184 86.428, 184 85.076 C 184 83.584, 158.759 40, 157.895 40 C 157.495 40, 155.760 41.778, 154.039 43.951 M 184.689 95.414 C 166.710 126.052, 152 151.318, 152 151.560 C 152 151.802, 154.363 152, 157.250 152 L 162.500 152 187.500 109.292 C 201.250 85.803, 215.029 62.243, 218.120 56.936 L 223.740 47.287 220.559 43.498 L 217.378 39.709 184.689 95.414 M 198.792 100.333 C 182.681 127.859, 169.350 150.745, 169.167 151.190 C 168.681 152.369, 175.767 152.185, 176.500 151 C 176.848 150.437, 181.657 150, 187.500 150 C 193.343 150, 198.152 150.437, 198.500 151 C 198.879 151.614, 207.010 152, 219.559 152 L 240 152 240 124.122 C 240 99.729, 240.201 96.078, 241.608 94.910 C 242.975 93.776, 243.426 93.862, 244.608 95.479 C 245.668 96.928, 246 101.431, 246 114.339 L 246 131.297 255.621 152.898 C 260.912 164.779, 265.449 174.724, 265.701 174.997 C 266.158 175.491, 267.686 174.698, 286.107 164.412 L 295.714 159.048 276.292 110.774 C 265.610 84.223, 256.337 61.999, 255.685 61.386 C 255.033 60.773, 248.556 58.025, 241.292 55.278 L 228.084 50.285 198.792 100.333 M 131.768 55.842 C 125.316 58.404, 119.498 61.053, 118.839 61.729 C 118.181 62.405, 108.968 84.455, 98.366 110.729 C 80.693 154.528, 79.232 158.609, 80.795 159.810 C 85.267 163.246, 108.274 175.120, 108.991 174.361 C 109.438 173.888, 114.124 163.858, 119.402 152.073 L 129 130.646 129 113.446 C 129 99.606, 129.285 96.009, 130.456 95.036 C 133.684 92.358, 134 94.905, 134 123.559 L 134 152 139.750 151.982 L 145.500 151.965 160.648 126.051 L 175.795 100.136 161.402 75.818 C 151.863 59.700, 146.417 51.447, 145.255 51.342 C 144.290 51.255, 138.221 53.280, 131.768 55.842 M 262.031 61.500 C 262.031 62.050, 262.467 63.175, 263 64 C 263.533 64.825, 263.969 65.050, 263.969 64.500 C 263.969 63.950, 263.533 62.825, 263 62 C 262.467 61.175, 262.031 60.950, 262.031 61.500 M 127.651 146.468 C 127.341 147.275, 127.518 148.202, 128.044 148.527 C 128.570 148.852, 129 148.191, 129 147.059 C 129 144.644, 128.444 144.401, 127.651 146.468 M 124.624 152.539 C 123.659 155.053, 123.943 155.702, 125.122 153.675 C 125.706 152.671, 125.973 151.639, 125.715 151.382 C 125.458 151.124, 124.966 151.645, 124.624 152.539 M 180 162.500 L 180 170 186.893 170 C 194.867 170, 195 169.851, 195 160.918 L 195 155 187.500 155 L 180 155 180 162.500 M 128.158 158 C 128.158 159.375, 128.385 159.938, 128.662 159.250 C 128.940 158.563, 128.940 157.438, 128.662 156.750 C 128.385 156.063, 128.158 156.625, 128.158 158 M 134.406 158.386 C 134.113 159.148, 134.015 161.735, 134.187 164.136 L 134.500 168.500 150.435 168.776 L 166.371 169.053 170.685 164.818 C 178.432 157.215, 178 157, 154.969 157 C 138.821 157, 134.834 157.269, 134.406 158.386 M 200 158.792 C 200 159.777, 201.930 162.477, 204.288 164.792 L 208.576 169 224.288 169 L 240 169 240 163 L 240 157 220 157 C 201.441 157, 200 157.129, 200 158.792 M 254.031 163.500 C 254.031 164.050, 254.467 165.175, 255 166 C 255.533 166.825, 255.969 167.050, 255.969 166.500 C 255.969 165.950, 255.533 164.825, 255 164 C 254.467 163.175, 254.031 162.950, 254.031 163.500 M 79 165.430 C 79 165.705, 79.900 166.411, 81 167 C 82.100 167.589, 83 167.845, 83 167.570 C 83 167.295, 82.100 166.589, 81 166 C 79.900 165.411, 79 165.155, 79 165.430 M 163.636 179.553 L 153.771 189.832 157.053 193.916 C 158.858 196.162, 160.671 198, 161.081 198 C 161.916 198, 181 176.537, 181 175.598 C 181 175.269, 180.190 175, 179.200 175 C 178.210 175, 176.860 174.460, 176.200 173.800 C 175.540 173.140, 175 171.790, 175 170.800 C 175 169.810, 174.662 169.061, 174.250 169.136 C 173.838 169.211, 169.061 173.899, 163.636 179.553 M 199.313 171.982 C 198.547 174.011, 197.490 175, 196.087 175 C 194.939 175, 194.008 175.338, 194.018 175.750 C 194.038 176.584, 211.855 197.348, 212.906 197.762 C 213.272 197.906, 215.343 196.209, 217.509 193.991 L 221.447 189.958 210.949 179.461 L 200.452 168.964 199.313 171.982 M 133.487 175.250 C 133.059 176.435, 123 221.901, 123 222.647 C 123 223.186, 250.599 223.068, 251.138 222.529 C 251.397 222.269, 249.225 211.357, 246.310 198.279 C 243.396 185.200, 241.009 174.387, 241.006 174.250 C 241.002 174.113, 234.598 174, 226.773 174 L 212.547 174 220.428 181.928 L 228.309 189.855 221.489 197.476 C 217.297 202.159, 214.031 204.981, 213.012 204.798 C 212.101 204.634, 206.713 199.100, 201.038 192.500 C 195.363 185.900, 189.945 179.674, 188.997 178.665 C 187.345 176.905, 186.777 177.403, 175.039 190.915 C 168.309 198.662, 162.246 205, 161.565 205 C 160.119 205, 147 191.668, 147 190.199 C 147 189.651, 150.194 185.782, 154.099 181.601 L 161.198 174 147.567 174 C 137.570 174, 133.817 174.333, 133.487 175.250 M 97 175.430 C 97 175.705, 97.900 176.411, 99 177 C 100.100 177.589, 101 177.845, 101 177.570 C 101 177.295, 100.100 176.589, 99 176 C 97.900 175.411, 97 175.155, 97 175.430 M 256.407 226.993 C 255.774 227.626, 230.579 228.082, 186.957 228.250 L 118.500 228.514 187.128 228.757 C 247.110 228.969, 255.912 228.811, 257 227.500 C 258.390 225.825, 257.951 225.449, 256.407 226.993" stroke="none" fill="" fill-rule="evenodd"/></svg>